# xmcd
#
# Track frame offsets:
#	150
#	38213
#	70446
#	90526
#	137350
#	168885
#	186395
#
# Disc length: 3094
#
# Revision: 1
# Processed by: cddbd v1.5.1PL0 Copyright (c) Steve Scherf et al.
# Submitted via: CDex 1.50
# Normalized: r0:DSETVAR1,TDELIM( - )
#
DISCID=590c1407
DTITLE=Various Artist - Jazz Ballads - After midnight 1
DYEAR=2001
DGENRE=Jazz
TTITLE0=Chroma - True confessions
TTITLE1=Snowy White - Looking for somebody
TTITLE2=Ingeburg Thomsen and Band - Stardust
TTITLE3=Jim Hall - All Blues
TTITLE4=Charles Famborough - Andrea
TTITLE5=Savoy Brown - Sweet loving thing
TTITLE6=Jim Hall - Django
EXTD=YEAR: 2001
EXTT0=
EXTT1=
EXTT2=
EXTT3=
EXTT4=
EXTT5=
EXTT6=
PLAYORDER=
